<svg width="32" height="26" viewBox="0 0 32 26" fill="none" xmlns="http://www.w3.org/2000/svg">
<path d="M15.9999 14.5688C15.9049 14.5688 15.8109 14.5478 15.7179 14.5068L1.43415 8.1149C1.16515 7.9949 0.994153 7.7199 1.00015 7.41291C1.00615 7.10991 1.19115 6.83492 1.46015 6.72992L15.7459 1.049C15.8279 1.017 15.9129 1 15.9999 1C16.0859 1 16.1719 1.017 16.2539 1.049L30.5387 6.72792C30.8137 6.83792 30.9937 7.10591 30.9997 7.41091C31.0077 7.7189 30.8367 7.9949 30.5657 8.1149L16.2809 14.5098C16.1919 14.5488 16.0959 14.5688 15.9999 14.5688ZM3.62612 7.46791L15.9649 12.9898L28.3738 7.46791L15.9999 2.54898L3.62612 7.46791Z" fill="black" stroke="black" stroke-width="1.5"/>
<path d="M1.43414 13.4907C1.07314 13.3277 0.904147 12.8867 1.05814 12.5077C1.17114 12.2327 1.43014 12.0537 1.71714 12.0537C1.81413 12.0537 1.90813 12.0747 1.99913 12.1157L15.9659 18.3646L30.0027 12.1157C30.0947 12.0737 30.1887 12.0537 30.2857 12.0537C30.5717 12.0537 30.8297 12.2307 30.9417 12.5077C31.0967 12.8867 30.9277 13.3277 30.5657 13.4907L15.9999 20.0086L1.43414 13.4907Z" fill="black" stroke="black" stroke-width="1.5"/>
<path d="M1.43415 18.4779C1.07216 18.314 0.903162 17.874 1.05816 17.497C1.17116 17.222 1.43015 17.043 1.71715 17.043C1.81415 17.043 1.90815 17.064 1.99915 17.104L15.966 23.3539L30.0028 17.104C30.0927 17.065 30.1887 17.043 30.2857 17.043C30.5717 17.043 30.8297 17.222 30.9417 17.497C31.0967 17.875 30.9277 18.316 30.5667 18.4779L16 24.9979L1.43415 18.4779Z" fill="black" stroke="black" stroke-width="1.5"/>
</svg>
