<svg width="20" height="20" viewBox="0 0 20 20" fill="none" xmlns="http://www.w3.org/2000/svg">
<path d="M8.01722 7.02539C8.56476 7.02539 9.0086 7.46924 9.0086 8.01677C9.0086 8.56433 8.56476 9.00817 8.01722 9.00817C7.46973 9.00817 7.02588 8.56433 7.02588 8.01677C7.02588 7.46924 7.46973 7.02539 8.01722 7.02539Z" fill="#FF8300"/>
<path d="M10.9915 11.9826C10.9915 12.5301 11.4354 12.974 11.9828 12.974C12.5304 12.974 12.9742 12.5301 12.9742 11.9826C12.9742 11.4351 12.5304 10.9912 11.9828 10.9912C11.4354 10.9912 10.9915 11.4351 10.9915 11.9826Z" fill="#FF8300"/>
<path d="M8.71822 12.6833L12.6837 8.71779C13.071 8.33066 13.071 7.70292 12.6837 7.31576C12.2966 6.9286 11.669 6.9286 11.2817 7.31576L7.31624 11.2813C6.92909 11.6684 6.92909 12.2962 7.31624 12.6833C7.70341 13.0704 8.33109 13.0704 8.71822 12.6833Z" fill="#FF8300"/>
<path fill-rule="evenodd" clip-rule="evenodd" d="M14.2745 2.13982L13.1434 2.41104L12.5354 1.41948C11.3749 -0.47316 8.625 -0.47316 7.46454 1.41948L6.85654 2.41104L5.72548 2.13982C3.56659 1.62212 1.62212 3.56659 2.13982 5.72548L2.41104 6.85654L1.41948 7.46454C-0.47316 8.62506 -0.47316 11.3749 1.41948 12.5355L2.41104 13.1435L2.13982 14.2745C1.62212 16.4334 3.56659 18.3778 5.72548 17.8601L6.85654 17.5889L7.46454 18.5805C8.625 20.4731 11.3749 20.4731 12.5354 18.5805L13.1434 17.5889L14.2745 17.8601C16.4334 18.3778 18.3779 16.4334 17.8602 14.2745L17.5889 13.1435L18.5805 12.5355C20.4732 11.3749 20.4732 8.62506 18.5805 7.46454L17.5889 6.85654L17.8602 5.72548C18.3779 3.56659 16.4334 1.62212 14.2745 2.13982ZM9.1548 2.45592C9.54163 1.82503 10.4583 1.82503 10.8451 2.45592L11.8294 4.06117C12.0538 4.42714 12.4883 4.6071 12.9058 4.507L14.7368 4.06791C15.4565 3.89535 16.1047 4.5435 15.9321 5.26313L15.493 7.09422C15.3928 7.51168 15.5728 7.94614 15.9388 8.17052L17.544 9.15486C18.1749 9.54169 18.1749 10.4583 17.544 10.8452L15.9388 11.8294C15.5728 12.0538 15.3928 12.4883 15.493 12.9057L15.9321 14.7368C16.1047 15.4565 15.4565 16.1046 14.7368 15.932L12.9058 15.4929C12.4883 15.3929 12.0538 15.5728 11.8294 15.9388L10.8451 17.5441C10.4583 18.1749 9.54163 18.1749 9.1548 17.5441L8.17056 15.9388C7.94614 15.5728 7.51168 15.3929 7.09422 15.4929L5.26313 15.932C4.5435 16.1046 3.89535 15.4565 4.06791 14.7368L4.507 12.9057C4.60711 12.4883 4.42714 12.0538 4.06117 11.8294L2.45592 10.8452C1.82503 10.4583 1.82503 9.54169 2.45592 9.15486L4.06117 8.17052C4.42714 7.94614 4.60711 7.51168 4.507 7.09422L4.06791 5.26313C3.89535 4.5435 4.5435 3.89535 5.26313 4.06791L7.09422 4.507C7.51168 4.6071 7.94614 4.42714 8.17056 4.06117L9.1548 2.45592Z" fill="#FF8300"/>
</svg>
