<svg width="24" height="24" viewBox="0 0 24 24" fill="none" xmlns="http://www.w3.org/2000/svg">
<path d="M2.18359 2.18164L21.82 21.818" stroke="#1D3343" stroke-width="2" stroke-linecap="round" stroke-linejoin="round"/>
<path d="M9.6653 10.3633C9.06579 10.8424 8.72882 11.4924 8.72852 12.1702C8.72822 12.8481 9.06461 13.4982 9.66371 13.9777C10.2628 14.4572 11.0755 14.7267 11.9231 14.7269C12.7706 14.7272 13.5835 14.4581 14.1831 13.979" stroke="#1D3343" stroke-width="2" stroke-linecap="round" stroke-linejoin="round"/>
<path d="M9.12416 4.76153C10.0595 4.49395 11.028 4.3599 12.0009 4.36335C16.3645 4.36335 20.0005 6.90843 22.91 11.9997C22.0612 13.4844 21.1514 14.7531 20.1794 15.8048M17.8449 17.8349C16.0656 19.0349 14.1194 19.636 12.0009 19.636C7.63725 19.636 4.00125 17.0909 1.0918 11.9997C2.58525 9.38696 4.26961 7.44515 6.14489 6.17316" stroke="#1D3343" stroke-width="2" stroke-linecap="round" stroke-linejoin="round"/>
</svg>
