<svg width="17" height="15" viewBox="0 0 17 15" fill="none" xmlns="http://www.w3.org/2000/svg">
<path d="M1.15949 2.19321L1.15948 2.19324C1.1464 2.21891 1.11478 2.29218 1.09561 2.52679C1.07548 2.77307 1.07471 3.09867 1.07471 3.613V10.3686C1.07471 10.8829 1.07548 11.2085 1.09561 11.4548C1.11478 11.6894 1.1464 11.7627 1.15947 11.7883L1.15948 11.7883C1.23406 11.9347 1.35305 12.0537 1.49929 12.1282L1.49941 12.1282C1.52507 12.1413 1.59834 12.1729 1.83294 12.1921C2.07922 12.2122 2.40482 12.213 2.91915 12.213H11.8477C11.8625 12.213 11.8773 12.213 11.892 12.213C12.0987 12.2128 12.2909 12.2127 12.4845 12.2398L12.485 12.2399C12.6549 12.2637 12.8223 12.3032 12.9849 12.3579L1.15949 2.19321ZM1.15949 2.19321C1.23405 2.04687 1.35302 1.9279 1.49936 1.85334L1.49939 1.85333M1.15949 2.19321L1.49939 1.85333M1.49939 1.85333C1.52506 1.84025 1.59834 1.80862 1.83294 1.78945C2.07923 1.76933 2.40483 1.76855 2.91915 1.76855H13.2303C13.7446 1.76855 14.0702 1.76933 14.3165 1.78945C14.5511 1.80862 14.6244 1.84025 14.65 1.85332L14.65 1.85332M1.49939 1.85333L14.65 1.85332M14.65 1.85332C14.7964 1.92791 14.9154 2.0469 14.9899 2.19314L14.9899 2.19325M14.65 1.85332L14.9899 2.19325M14.9899 2.19325C15.003 2.21892 15.0346 2.29219 15.0538 2.5268C15.0739 2.77307 15.0747 3.09868 15.0747 3.613V13.3727M14.9899 2.19325L15.0747 13.3727M15.0747 13.3727L13.567 12.6188L13.567 12.6188C13.5537 12.6122 13.5405 12.6056 13.5274 12.599C13.3425 12.5064 13.1705 12.4203 12.985 12.3579L15.0747 13.3727Z" stroke="#FF8300" stroke-width="2"/>
</svg>
