<svg width="17" height="21" viewBox="0 0 17 21" fill="none" xmlns="http://www.w3.org/2000/svg">
<path d="M14.799 13.5264L14.799 13.5264L14.8016 13.5308C15.0485 13.9358 15.0899 14.4056 14.9281 14.8349C14.7606 15.2795 14.4217 15.6058 13.9893 15.7479L13.9893 15.7479L13.9837 15.7497C12.069 16.3912 10.0516 16.7083 8.03058 16.7083C6.00964 16.7083 3.99387 16.3913 2.08187 15.7408L2.07985 15.7401C1.55492 15.5628 1.21903 15.2199 1.08663 14.8503L1.08666 14.8503L1.08378 14.8424C0.939256 14.4493 0.973841 13.9933 1.25249 13.5253L2.30297 11.7883L2.30707 11.7816L2.31107 11.7747C2.48179 11.482 2.6139 11.1134 2.70262 10.7871C2.79115 10.4615 2.86395 10.077 2.86395 9.73958V7.10417C2.86395 5.08558 4.03843 3.3285 5.74683 2.47868L6.02348 2.34106L6.17428 2.07137C6.54171 1.41424 7.23123 1 7.99933 1C8.78641 1 9.45288 1.40122 9.81627 2.04414L9.97143 2.31867L10.256 2.45452C11.9961 3.28523 13.1972 5.0579 13.1972 7.10417V9.73958C13.1972 10.077 13.2701 10.4614 13.3583 10.7873C13.4471 11.1156 13.578 11.482 13.7442 11.7749L13.7506 11.7861L13.7573 11.7973L14.799 13.5264Z" stroke="#FF8300" stroke-width="2"/>
<path d="M10.9572 18.7604C10.5197 19.9688 9.36345 20.8333 8.00929 20.8333C7.18637 20.8333 6.37387 20.5 5.80094 19.9063C5.46761 19.5938 5.21761 19.1771 5.07178 18.75C5.20719 18.7708 5.34261 18.7812 5.48844 18.8021C5.72803 18.8333 5.97804 18.8646 6.22804 18.8854C6.82179 18.9375 7.42595 18.9687 8.03012 18.9687C8.62387 18.9687 9.21762 18.9375 9.80095 18.8854C10.0197 18.8646 10.2385 18.8542 10.4468 18.8229C10.6135 18.8021 10.7801 18.7813 10.9572 18.7604Z" fill="url(#paint0_linear_526_1136)"/>
<defs>
<linearGradient id="paint0_linear_526_1136" x1="8.01449" y1="18.75" x2="8.01449" y2="20.8333" gradientUnits="userSpaceOnUse">
<stop stop-color="#FFAF37"/>
<stop offset="1" stop-color="#FF8008"/>
</linearGradient>
</defs>
</svg>
