<svg width="24" height="30" viewBox="0 0 24 30" fill="none" xmlns="http://www.w3.org/2000/svg">
<path d="M13.9286 12.8806H23.3036C23.3684 12.8806 23.4306 12.9063 23.4764 12.9522C23.5222 12.998 23.548 13.0602 23.548 13.125V25.7143C23.548 26.8447 23.0989 27.9288 22.2996 28.7282C21.5003 29.5275 20.4161 29.9766 19.2857 29.9766H4.28571C3.15529 29.9766 2.07116 29.5275 1.27183 28.7282C0.472497 27.9288 0.0234375 26.8447 0.0234375 25.7143V4.28571C0.0234375 3.15529 0.472497 2.07116 1.27183 1.27183C2.07116 0.472498 3.15529 0.0234375 4.28571 0.0234375H10.4464C10.5113 0.0234375 10.5734 0.0491888 10.6193 0.0950264C10.6651 0.140864 10.6908 0.203033 10.6908 0.267857V9.64286C10.6908 10.5016 11.032 11.3251 11.6392 11.9323C12.2463 12.5395 13.0699 12.8806 13.9286 12.8806ZM6.42857 23.5949H17.1429C17.4332 23.5949 17.7117 23.4795 17.917 23.2742C18.1224 23.0689 18.2377 22.7904 18.2377 22.5C18.2377 22.2096 18.1224 21.9311 17.917 21.7258C17.7117 21.5205 17.4332 21.4051 17.1429 21.4051H6.42857C6.13819 21.4051 5.85971 21.5205 5.65438 21.7258C5.44906 21.9311 5.3337 22.2096 5.3337 22.5C5.3337 22.7904 5.44906 23.0689 5.65438 23.2742C5.85971 23.4795 6.13819 23.5949 6.42857 23.5949ZM6.42857 18.2377H17.1429C17.4332 18.2377 17.7117 18.1224 17.917 17.917C18.1224 17.7117 18.2377 17.4332 18.2377 17.1429C18.2377 16.8525 18.1224 16.574 17.917 16.3687C17.7117 16.1633 17.4332 16.048 17.1429 16.048H6.42857C6.13819 16.048 5.85971 16.1633 5.65438 16.3687C5.44906 16.574 5.3337 16.8525 5.3337 17.1429C5.3337 17.4332 5.44906 17.7117 5.65438 17.917C5.85971 18.1224 6.13819 18.2377 6.42857 18.2377Z" fill="black" stroke="black" stroke-width="0.046875"/>
<path d="M13.0689 0.871975L22.699 10.502L22.699 10.5021C22.7144 10.5175 22.7248 10.5371 22.729 10.5585C22.7332 10.5799 22.731 10.602 22.7227 10.6221C22.7144 10.6423 22.7003 10.6595 22.6822 10.6716C22.6641 10.6838 22.6429 10.6903 22.6211 10.6904H13.9285C13.6506 10.6904 13.384 10.58 13.1875 10.3834C12.991 10.1869 12.8806 9.92035 12.8806 9.64241V0.949824C12.8807 0.928055 12.8872 0.9068 12.8993 0.888728C12.9115 0.870643 12.9287 0.856553 12.9488 0.848228C12.969 0.839904 12.9911 0.837717 13.0125 0.841942C13.0338 0.846165 13.0535 0.856605 13.0689 0.871951C13.0689 0.871959 13.0689 0.871967 13.0689 0.871975Z" fill="black" stroke="black" stroke-width="0.046875"/>
</svg>
