<svg width="20" height="23" viewBox="0 0 20 23" fill="none" xmlns="http://www.w3.org/2000/svg">
<path d="M14.9643 5.55556C14.9643 8.19014 12.7621 10.3611 10 10.3611C7.23791 10.3611 5.03571 8.19014 5.03571 5.55556C5.03571 2.92097 7.23791 0.75 10 0.75C12.7621 0.75 14.9643 2.92097 14.9643 5.55556ZM10 13.9444C11.2118 13.9444 12.3659 13.6936 13.4106 13.25H14C16.9183 13.25 19.25 15.5468 19.25 18.3333V20.1389C19.25 20.8551 18.646 21.4722 17.8571 21.4722H2.14286C1.35398 21.4722 0.75 20.8551 0.75 20.1389V18.3333C0.75 15.5468 3.08166 13.25 6 13.25H6.58992C7.63723 13.6932 8.78724 13.9444 10 13.9444Z" stroke="#FF8300" stroke-width="1.5"/>
</svg>
